<svg width="62" height="62" viewBox="0 0 62 62" fill="none" xmlns="http://www.w3.org/2000/svg">
<path d="M0 0H61.9396V61.9396H0V0Z" fill="white" fill-opacity="0.01"/>
<path d="M43.8739 7.74268H18.0657C12.3643 7.74268 7.74243 12.3646 7.74243 18.0659V43.8741C7.74243 49.5755 12.3643 54.1974 18.0657 54.1974H43.8739C49.5753 54.1974 54.1971 49.5755 54.1971 43.8741V18.0659C54.1971 12.3646 49.5753 7.74268 43.8739 7.74268Z" stroke="#FDFDF2" stroke-width="5.16163" stroke-linejoin="round"/>
<path d="M30.9698 41.293C36.6712 41.293 41.293 36.6712 41.293 30.9698C41.293 25.2683 36.6712 20.6465 30.9698 20.6465C25.2683 20.6465 20.6465 25.2683 20.6465 30.9698C20.6465 36.6712 25.2683 41.293 30.9698 41.293Z" stroke="#FDFDF2" stroke-width="5.16163" stroke-linejoin="round"/>
<path d="M45.1643 19.356C46.5897 19.356 47.7451 18.2005 47.7451 16.7752C47.7451 15.3498 46.5897 14.1943 45.1643 14.1943C43.7389 14.1943 42.5835 15.3498 42.5835 16.7752C42.5835 18.2005 43.7389 19.356 45.1643 19.356Z" fill="#FDFDF2"/>
</svg>
