<svg width="62" height="62" viewBox="0 0 62 62" fill="none" xmlns="http://www.w3.org/2000/svg">
<path d="M0 0H61.9396V61.9396H0V0Z" fill="white" fill-opacity="0.01"/>
<path d="M11.6138 15.4849C14.4645 15.4849 16.7754 13.1739 16.7754 10.3233C16.7754 7.47256 14.4645 5.16162 11.6138 5.16162C8.76309 5.16162 6.45215 7.47256 6.45215 10.3233C6.45215 13.1739 8.76309 15.4849 11.6138 15.4849Z" stroke="#FDFDF2" stroke-width="5.16163"/>
<path d="M6.45215 23.2275H16.7754V55.4877H6.45215V23.2275Z" stroke="#FDFDF2" stroke-width="5.16163" stroke-linejoin="round"/>
<path d="M27.0986 55.4875H24.5178C24.5178 56.9129 25.6733 58.0683 27.0986 58.0683V55.4875ZM36.1315 55.4875V58.0683C37.5569 58.0683 38.7123 56.9129 38.7123 55.4875H36.1315ZM46.4548 55.4875H43.8739C43.8739 56.9129 45.0294 58.0683 46.4548 58.0683V55.4875ZM55.4876 55.4875V58.0683C56.913 58.0683 58.0684 56.9129 58.0684 55.4875H55.4876ZM27.0986 58.0683H36.1315V52.9067H27.0986V58.0683ZM38.7123 55.4875V37.1798H33.5507V55.4875H38.7123ZM43.8739 37.1798V55.4875H49.0356V37.1798H43.8739ZM46.4548 58.0683H55.4876V52.9067H46.4548V58.0683ZM58.0684 55.4875V37.4218H52.9068V55.4875H58.0684ZM24.5178 37.4218V55.4875H29.6795V37.4218H24.5178ZM58.0684 37.4218C58.0684 28.157 50.5579 20.6465 41.2931 20.6465V25.8081C47.7072 25.8081 52.9068 31.0077 52.9068 37.4218H58.0684ZM41.2931 34.599C42.7185 34.599 43.8739 35.7545 43.8739 37.1798H49.0356C49.0356 32.9038 45.5692 29.4374 41.2931 29.4374V34.599ZM41.2931 20.6465C32.0284 20.6465 24.5178 28.157 24.5178 37.4218H29.6795C29.6795 31.0077 34.879 25.8081 41.2931 25.8081V20.6465ZM38.7123 37.1798C38.7123 35.7545 39.8677 34.599 41.2931 34.599V29.4374C37.0171 29.4374 33.5507 32.9038 33.5507 37.1798H38.7123Z" fill="#FDFDF2"/>
</svg>
