<svg width="36" height="55" viewBox="0 0 36 55" fill="none" xmlns="http://www.w3.org/2000/svg">
<path d="M27.7101 0.675781H8.1594C4.11031 0.675781 0.827881 3.95822 0.827881 8.0073V47.1087C0.827881 51.1578 4.11031 54.4403 8.1594 54.4403H27.7101C31.7592 54.4403 35.0416 51.1578 35.0416 47.1087V8.0073C35.0416 3.95822 31.7592 0.675781 27.7101 0.675781ZM27.7101 8.0073C29.0598 8.0073 30.154 9.10145 30.154 10.4511V44.6649C30.154 46.0146 29.0598 47.1087 27.7101 47.1087H8.1594C6.80971 47.1087 5.71556 46.0146 5.71556 44.6649V10.4511C5.71556 9.10145 6.80971 8.0073 8.1594 8.0073H27.7101Z" fill="#322A24"/>
</svg>
