<svg width="53" height="57" viewBox="0 0 53 57" fill="none" xmlns="http://www.w3.org/2000/svg">
<path d="M51.4223 36.0652L49.1928 34.2222C47.841 33.0979 47.0974 31.4008 47.1863 29.6427C47.1863 29.2518 47.1863 28.8329 47.1863 28.442C47.1863 28.051 47.1863 27.6322 47.1863 27.2412C47.0974 25.4832 47.841 23.7861 49.1928 22.6617L51.4223 20.8187C52.4801 19.9592 52.7629 18.4594 52.0911 17.2724L48.8584 11.6876C48.1732 10.5216 46.7522 10.0156 45.4863 10.4869L42.6995 11.4921C41.0548 12.108 39.2167 11.9114 37.7389 10.9616C37.0838 10.5081 36.3942 10.1066 35.6766 9.76083C34.1085 8.95502 33.013 7.45356 32.7226 5.71185L32.2488 2.91946C32.028 1.55381 30.8426 0.556039 29.462 0.573843H23.0523C21.6717 0.556039 20.4862 1.55381 20.2654 2.91946L19.7917 5.71185C19.5255 7.43156 18.4745 8.92866 16.9491 9.76083C16.2315 10.1066 15.542 10.5081 14.8868 10.9616C13.409 11.9114 11.5709 12.108 9.92628 11.4921L7.13944 10.4869C5.88968 10.0464 4.50319 10.5484 3.8231 11.6876L0.590375 17.2724C-0.0814607 18.4594 0.201389 19.9592 1.25922 20.8187L3.48868 22.6617C4.84044 23.7861 5.58403 25.4832 5.49521 27.2412C5.49521 27.6322 5.49521 28.051 5.49521 28.442C5.49521 28.8329 5.49521 29.2518 5.49521 29.6427C5.58403 31.4008 4.84044 33.0979 3.48868 34.2222L1.25922 36.0652C0.201389 36.9248 -0.0814607 38.4245 0.590375 39.6116L3.8231 45.1964C4.50831 46.3624 5.92927 46.8684 7.19518 46.3971L9.98201 45.3918C11.6266 44.7759 13.4647 44.9725 14.9426 45.9224C15.5977 46.3759 16.2872 46.7773 17.0048 47.1231C18.573 47.9289 19.6684 49.4304 19.9589 51.1721L20.4326 53.9645C20.6534 55.3301 21.8389 56.3279 23.2195 56.3101H29.6292C31.0098 56.3279 32.1952 55.3301 32.416 53.9645L32.8898 51.1721C33.1803 49.4304 34.2757 47.9289 35.8438 47.1231C36.5615 46.7773 37.251 46.3759 37.9061 45.9224C39.3839 44.9725 41.222 44.7759 42.8667 45.3918L45.6535 46.3971C46.8701 46.7784 48.1899 46.2839 48.8584 45.1964L52.0911 39.6116C52.7629 38.4245 52.4801 36.9248 51.4223 36.0652ZM26.3407 36.8192C21.7234 36.8192 17.9802 33.0686 17.9802 28.442C17.9802 23.8154 21.7234 20.0648 26.3407 20.0648C30.9581 20.0648 34.7012 23.8154 34.7012 28.442C34.7012 30.6637 33.8204 32.7945 32.2525 34.3655C30.6846 35.9366 28.5581 36.8192 26.3407 36.8192Z" fill="#322A24"/>
</svg>
