<svg width="60" height="59" viewBox="0 0 60 59" fill="none" xmlns="http://www.w3.org/2000/svg">
<path d="M30 55.4493C37.1036 55.4493 43.5348 52.5699 48.1901 47.9147C52.8453 43.2594 55.7247 36.8282 55.7247 29.7246C55.7247 22.621 52.8453 16.1899 48.1901 11.5346C43.5348 6.87933 37.1036 4 30 4C22.8964 4 16.4653 6.87933 11.81 11.5346C7.15472 16.1899 4.27539 22.621 4.27539 29.7246C4.27539 36.8282 7.15472 43.2594 11.81 47.9147C16.4653 52.5699 22.8964 55.4493 30 55.4493Z" stroke="#322A24" stroke-width="7" stroke-linejoin="round"/>
<path d="M30.0001 35.6733V30.5284C34.2623 30.5284 37.7175 27.0732 37.7175 22.811C37.7175 18.5488 34.2623 15.0936 30.0001 15.0936C25.7379 15.0936 22.2827 18.5488 22.2827 22.811" stroke="#322A24" stroke-width="7" stroke-linecap="round" stroke-linejoin="round"/>
<path fill-rule="evenodd" clip-rule="evenodd" d="M30 47.2495C31.7759 47.2495 33.2156 45.8098 33.2156 44.0339C33.2156 42.258 31.7759 40.8184 30 40.8184C28.2241 40.8184 26.7844 42.258 26.7844 44.0339C26.7844 45.8098 28.2241 47.2495 30 47.2495Z" fill="#322A24"/>
</svg>
