<svg width="128" height="128" viewBox="0 0 128 128" fill="none" xmlns="http://www.w3.org/2000/svg">
<rect x="8.76416" y="32.7856" width="8.49782" height="65.5972" rx="4.24891" fill="url(#paint0_linear_21026_473)"/>
<rect x="110.738" y="32.7856" width="8.49782" height="65.5972" rx="4.24891" fill="url(#paint1_linear_21026_473)"/>
<rect x="25.7598" y="21.7532" width="8.49782" height="82.2947" rx="4.24891" fill="url(#paint2_linear_21026_473)"/>
<rect x="93.7427" y="21.7532" width="8.49782" height="82.2947" rx="4.24891" fill="url(#paint3_linear_21026_473)"/>
<rect x="42.7556" y="16.2371" width="8.49782" height="95.2651" rx="4.24891" fill="url(#paint4_linear_21026_473)"/>
<rect x="76.7466" y="15.3426" width="8.49782" height="95.2651" rx="4.24891" fill="url(#paint5_linear_21026_473)"/>
<rect x="59.751" y="7.44113" width="8.49782" height="112.559" rx="4.24891" fill="url(#paint6_linear_21026_473)"/>
<defs>
<linearGradient id="paint0_linear_21026_473" x1="13.0131" y1="32.7856" x2="13.0131" y2="98.3828" gradientUnits="userSpaceOnUse">
<stop stop-color="#D07F31"/>
<stop offset="1" stop-color="#FBC33C"/>
</linearGradient>
<linearGradient id="paint1_linear_21026_473" x1="114.987" y1="32.7856" x2="114.987" y2="98.3828" gradientUnits="userSpaceOnUse">
<stop stop-color="#D07F31"/>
<stop offset="1" stop-color="#FBC33C"/>
</linearGradient>
<linearGradient id="paint2_linear_21026_473" x1="30.0087" y1="21.7532" x2="30.0087" y2="104.048" gradientUnits="userSpaceOnUse">
<stop stop-color="#D07F31"/>
<stop offset="1" stop-color="#FBC33C"/>
</linearGradient>
<linearGradient id="paint3_linear_21026_473" x1="97.9916" y1="21.7532" x2="97.9916" y2="104.048" gradientUnits="userSpaceOnUse">
<stop stop-color="#D07F31"/>
<stop offset="1" stop-color="#FBC33C"/>
</linearGradient>
<linearGradient id="paint4_linear_21026_473" x1="47.0045" y1="16.2371" x2="47.0045" y2="111.502" gradientUnits="userSpaceOnUse">
<stop stop-color="#D07F31"/>
<stop offset="1" stop-color="#FBC33C"/>
</linearGradient>
<linearGradient id="paint5_linear_21026_473" x1="80.9955" y1="15.3426" x2="80.9955" y2="110.608" gradientUnits="userSpaceOnUse">
<stop stop-color="#D07F31"/>
<stop offset="1" stop-color="#FBC33C"/>
</linearGradient>
<linearGradient id="paint6_linear_21026_473" x1="63.9999" y1="7.44113" x2="63.9999" y2="120" gradientUnits="userSpaceOnUse">
<stop stop-color="#D07F31"/>
<stop offset="1" stop-color="#FBC33C"/>
</linearGradient>
</defs>
</svg>